<svg width="50" height="50" viewBox="0 0 50 50" fill="none" xmlns="http://www.w3.org/2000/svg">
<g opacity="0.8">
<path d="M49.8999 45.5059L39.5429 35.1499C42.4269 31.3641 43.9723 26.728 43.9369 21.9689C43.955 19.079 43.3991 16.2142 42.3015 13.5407C41.2039 10.8672 39.5865 8.43821 37.543 6.39461C35.4995 4.351 33.0706 2.73344 30.3971 1.63573C27.7237 0.538025 24.8589 -0.0179883 21.9689 -6.2002e-05C19.0789 -0.0181212 16.214 0.537795 13.5404 1.63544C10.8669 2.73309 8.43787 4.35063 6.39425 6.39425C4.35063 8.43787 2.73309 10.8669 1.63544 13.5404C0.537795 16.214 -0.0181212 19.0789 -6.2002e-05 21.9689C-0.0179883 24.8589 0.538025 27.7237 1.63573 30.3971C2.73344 33.0706 4.351 35.4995 6.39461 37.543C8.43821 39.5865 10.8672 41.2039 13.5407 42.3015C16.2142 43.3991 19.079 43.955 21.9689 43.9369C26.728 43.9723 31.3641 42.4269 35.1499 39.5429L45.5059 49.8999L49.8999 45.5059ZM6.27694 21.9689C6.25649 19.9025 6.64841 17.8528 7.42977 15.9398C8.21112 14.0267 9.36622 12.2887 10.8274 10.8274C12.2887 9.36622 14.0267 8.21112 15.9398 7.42977C17.8528 6.64841 19.9025 6.25649 21.9689 6.27694C24.0352 6.25662 26.0848 6.64864 27.9978 7.43006C29.9108 8.21148 31.6487 9.36659 33.1098 10.8278C34.5709 12.289 35.7259 14.027 36.5072 15.94C37.2885 17.853 37.6804 19.9026 37.6599 21.9689C37.6803 24.0352 37.2883 26.0847 36.5069 27.9976C35.7256 29.9105 34.5705 31.6483 33.1094 33.1094C31.6483 34.5705 29.9105 35.7256 27.9976 36.5069C26.0847 37.2883 24.0352 37.6803 21.9689 37.6599C19.9026 37.6804 17.853 37.2885 15.94 36.5072C14.027 35.7259 12.289 34.5709 10.8278 33.1098C9.36659 31.6487 8.21148 29.9108 7.43006 27.9978C6.64864 26.0848 6.25662 24.0352 6.27694 21.9689Z" fill="#707070"/>
</g>
</svg>
