<svg width="12" height="12" viewBox="0 0 12 12" fill="none" xmlns="http://www.w3.org/2000/svg">
<path fill-rule="evenodd" clip-rule="evenodd" d="M11.0409 1.80271C10.741 1.49277 10.3838 1.24668 9.98988 1.07872C9.596 0.910753 9.17333 0.824261 8.74642 0.824261C8.31951 0.824261 7.89685 0.910753 7.50296 1.07872C7.10908 1.24668 6.75182 1.49277 6.45192 1.80271L6.00092 2.26277L5.54892 1.80271C4.94025 1.1818 4.11471 0.832985 3.25392 0.832985C2.39313 0.832985 1.56759 1.1818 0.958921 1.80271C0.350249 2.42361 0.00830079 3.26574 0.00830078 4.14383C0.00830077 5.02192 0.350249 5.86404 0.958921 6.48495L5.99992 11.6273L11.0409 6.48495C11.3448 6.17902 11.586 5.81458 11.7507 5.41278C11.9153 5.01099 12.0001 4.57983 12.0001 4.14434C12.0001 3.70885 11.9153 3.27769 11.7507 2.87589C11.586 2.4741 11.3448 2.10864 11.0409 1.80271Z" fill="#B4B4B4"/>
</svg>
