<svg width="20" height="20" viewBox="0 0 30 30" fill="none" xmlns="http://www.w3.org/2000/svg">
<path d="M0 30V26.25C0 22.124 6.75 18.75 15 18.75C23.25 18.75 30 22.125 30 26.25V30H0ZM7.5 7.5C7.5 6.01664 7.93987 4.5666 8.76398 3.33323C9.58809 2.09986 10.7594 1.13856 12.1299 0.570907C13.5003 0.00324965 15.0083 -0.145275 16.4632 0.144114C17.918 0.433503 19.2544 1.14781 20.3033 2.1967C21.3522 3.2456 22.0665 4.58197 22.3559 6.03683C22.6453 7.49168 22.4968 8.99968 21.9291 10.3701C21.3614 11.7406 20.4001 12.9119 19.1668 13.736C17.9334 14.5601 16.4834 15 15 15C13.0109 15 11.1032 14.2098 9.6967 12.8033C8.29018 11.3968 7.5 9.48913 7.5 7.5Z" fill="#CFD5BF"/>
</svg>
