<svg width="13" height="13" viewBox="0 0 13 13" fill="none" xmlns="http://www.w3.org/2000/svg">
<path fill-rule="evenodd" clip-rule="evenodd" d="M3.75018 6.20593C3.7442 6.30799 3.75951 6.41018 3.79509 6.50577C3.83066 6.60135 3.8857 6.68816 3.95658 6.76045C4.02745 6.83275 4.11254 6.8889 4.20624 6.92519C4.29995 6.96148 4.40013 6.97709 4.50018 6.971H7.50018C7.69893 6.97046 7.88939 6.88968 8.02992 6.74632C8.17046 6.60296 8.24965 6.40867 8.25018 6.20593C8.25615 6.10387 8.24084 6.00167 8.20527 5.90609C8.16969 5.81051 8.11465 5.7237 8.04378 5.65141C7.9729 5.57911 7.88781 5.52296 7.79411 5.48667C7.70041 5.45038 7.60023 5.43476 7.50018 5.44086H4.50018C4.30143 5.4414 4.11097 5.52217 3.97043 5.66554C3.82989 5.8089 3.7507 6.00318 3.75018 6.20593ZM0.000176206 3.91071C-0.00463383 3.407 0.0890782 2.90736 0.27583 2.44103C0.462582 1.9747 0.738623 1.55104 1.08781 1.19484C1.43699 0.838641 1.8523 0.557052 2.30944 0.366548C2.76659 0.176043 3.25638 0.0804476 3.75018 0.0853543H8.25018C8.74397 0.0804476 9.23377 0.176043 9.69091 0.366548C10.1481 0.557052 10.5634 0.838641 10.9125 1.19484C11.2617 1.55104 11.5378 1.9747 11.7245 2.44103C11.9113 2.90736 12.005 3.407 12.0002 3.91071V11.5614C12.0062 11.6635 11.9908 11.7657 11.9553 11.8613C11.9197 11.9569 11.8646 12.0437 11.7938 12.116C11.7229 12.1883 11.6378 12.2444 11.5441 12.2807C11.4504 12.317 11.3502 12.3326 11.2502 12.3265H3.75018C3.25638 12.3314 2.76659 12.2358 2.30944 12.0453C1.8523 11.8548 1.43699 11.5732 1.08781 11.217C0.738623 10.8608 0.462582 10.4372 0.27583 9.97083C0.0890782 9.5045 -0.00463383 9.00486 0.000176206 8.50114V3.91071Z" fill="#B4B4B4"/>
</svg>
