<svg width="16" height="18" viewBox="0 0 16 18" fill="none" xmlns="http://www.w3.org/2000/svg">
<path d="M15.9001 15.515L12.6001 12.1487C13.519 10.9181 14.0114 9.41113 14.0001 7.86426C14.0058 6.9249 13.8287 5.99374 13.4789 5.12476C13.1292 4.25579 12.6138 3.46629 11.9626 2.80206C11.3115 2.13782 10.5375 1.61206 9.68566 1.25527C8.8338 0.898485 7.92098 0.717762 7.00013 0.723586C6.07929 0.717762 5.16647 0.898485 4.31461 1.25527C3.46275 1.61206 2.68881 2.13782 2.03766 2.80206C1.38651 3.46629 0.871109 4.25579 0.521348 5.12476C0.171587 5.99374 -0.00557568 6.9249 0.000133728 7.86426C-0.00557568 8.80361 0.171587 9.73477 0.521348 10.6037C0.871109 11.4727 1.38651 12.2622 2.03766 12.9265C2.68881 13.5907 3.46275 14.1164 4.31461 14.4732C5.16647 14.83 6.07929 15.0107 7.00013 15.0049C8.51654 15.0165 9.99379 14.5141 11.2001 13.5768L14.5001 16.9431L15.9001 15.515ZM2.00013 7.86426C1.99358 7.19259 2.11844 6.52635 2.3674 5.90451C2.61635 5.28267 2.9844 4.71774 3.45 4.24278C3.91561 3.76782 4.46941 3.39238 5.07899 3.13842C5.68858 2.88446 6.3417 2.7571 7.00013 2.76378C7.65856 2.7571 8.31169 2.88446 8.92127 3.13842C9.53086 3.39238 10.0847 3.76782 10.5503 4.24278C11.0159 4.71774 11.3839 5.28267 11.6329 5.90451C11.8818 6.52635 12.0067 7.19259 12.0001 7.86426C12.0067 8.53592 11.8818 9.20217 11.6329 9.824C11.3839 10.4458 11.0159 11.0108 10.5503 11.4857C10.0847 11.9607 9.53086 12.3361 8.92127 12.5901C8.31169 12.8441 7.65856 12.9714 7.00013 12.9647C6.3417 12.9714 5.68858 12.8441 5.07899 12.5901C4.46941 12.3361 3.91561 11.9607 3.45 11.4857C2.9844 11.0108 2.61635 10.4458 2.3674 9.824C2.11844 9.20217 1.99358 8.53592 2.00013 7.86426Z" fill="#707070"/>
</svg>
